<?xml version="1.0" encoding="utf-8"?>
<!-- Generator: Adobe Illustrator 21.0.0, SVG Export Plug-In . SVG Version: 6.00 Build 0)  -->
<svg version="1.1" id="Layer_1" xmlns="http://www.w3.org/2000/svg" xmlns:xlink="http://www.w3.org/1999/xlink" x="0px" y="0px"
	 viewBox="0 0 512 512" style="enable-background:new 0 0 512 512;" xml:space="preserve">
<style type="text/css">
	.st0{fill:#DBDBDB;}
	.st1{fill:#27E027;}
	.st2{fill:#221B17;}
</style>
<path class="st0" d="M261,490.3c-2.8,0-5-2.2-5-5V321.1c0-2.8,2.2-5,5-5s5,2.2,5,5v164.2C266,488.1,263.8,490.3,261,490.3z"/>
<g>
	<path class="st1" d="M322,146l-16.6-8.3c-1.8-31.1-10.5-61.7-25.4-89.1c-3.9-7.2-11.1-11.4-19.2-11.4c-8.2,0-15.3,4.3-19.2,11.4
		c-14.9,27.4-23.6,58-25.4,89.1l-16.6,8.3c-15.5,7.8-25.2,23.4-25.2,40.8v29.6c0,2.8,2.2,5,5,5h48.6v30c0,2.8,2.2,5,5,5h56.3
		c2.8,0,5-2.2,5-5v-30h48.1c2.8,0,5-2.2,5-5v-29.6C347.2,169.4,337.5,153.8,322,146L322,146z M184.2,186.8
		c0-13.6,7.5-25.8,19.7-31.8l11.8-5.9v62.3h-31.4V186.8z M225.7,150.1c0-33.7,8.5-67.1,24.6-96.6c2.1-3.9,6-6.2,10.5-6.2
		c4.4,0,8.3,2.3,10.5,6.2c16.1,29.6,24.6,63,24.6,96.6v61.3h-30v-64.9c0-2.8-2.2-5-5-5s-5,2.2-5,5v64.9h-30V150.1z M284.1,246.4
		h-46.3v-25h46.3V246.4z M337.2,211.4h-31.4v-62.3l11.8,5.9c12.1,6.1,19.7,18.3,19.7,31.8V211.4z"/>
	<path class="st1" d="M261,261c-2.8,0-5,2.2-5,5v28c0,2.8,2.2,5,5,5s5-2.2,5-5v-28C266,263.2,263.8,261,261,261L261,261z"/>
	<path class="st1" d="M242.5,261c-2.8,0-5,2.2-5,5v10.6c0,2.8,2.2,5,5,5s5-2.2,5-5V266C247.5,263.2,245.3,261,242.5,261L242.5,261z"
		/>
	<path class="st1" d="M279.5,261c-2.8,0-5,2.2-5,5v10.6c0,2.8,2.2,5,5,5s5-2.2,5-5V266C284.5,263.2,282.3,261,279.5,261L279.5,261z"
		/>
</g>
<g>
	<path class="st2" d="M405.7,234.7l-40.6-23.5c-2.4-1.4-5.5-0.6-6.8,1.8c-1.4,2.4-0.6,5.4,1.8,6.8l33.1,19.1L261,315.3L128.8,239
		l33.4-19.3c2.4-1.4,3.2-4.4,1.8-6.8s-4.4-3.2-6.8-1.8l-40.9,23.6c-1.5,0.9-2.5,2.5-2.5,4.3v164.2c0,1.8,1,3.4,2.5,4.3l142.2,82.1
		c0.8,0.4,1.6,0.7,2.5,0.7c0.9,0,1.7-0.2,2.5-0.7l142.2-82.1c1.5-0.9,2.5-2.5,2.5-4.3V239C408.2,237.2,407.3,235.5,405.7,234.7
		L405.7,234.7z M261,479.5l-137.2-79.2V247.6l134.7,77.8c0.8,0.4,1.6,0.7,2.5,0.7c0.9,0,1.7-0.2,2.5-0.7l134.7-77.8v152.7L261,479.5
		z"/>
	<path class="st2" d="M242.2,117h37.6c1.8,0,3.5-1,4.4-2.6c0.9-1.6,0.8-3.5-0.1-5.1L265.2,79c-0.9-1.5-2.5-2.4-4.2-2.4
		s-3.3,0.9-4.2,2.4l-18.8,30.3c-1,1.5-1,3.5-0.1,5.1C238.7,116,240.4,117,242.2,117z M261,91.1l9.8,15.8h-19.6L261,91.1z"/>
</g>
</svg>
