<?xml version="1.0" encoding="utf-8"?>
<!-- Generator: Adobe Illustrator 21.0.0, SVG Export Plug-In . SVG Version: 6.00 Build 0)  -->
<svg version="1.1" id="Layer_1" xmlns="http://www.w3.org/2000/svg" xmlns:xlink="http://www.w3.org/1999/xlink" x="0px" y="0px"
	 viewBox="0 0 512 512" style="enable-background:new 0 0 512 512;" xml:space="preserve">
<style type="text/css">
	.st0{fill:#27E027;}
	.st1{fill:#221B17;}
</style>
<path class="st0" d="M335.7,428.4h-20.6c-6.4,0-12-4.3-13.6-10.6l-5.5-21.3l-19,11.2c-5.5,3.3-12.6,2.4-17.1-2.2l-14.6-14.6
	c-4.5-4.5-5.4-11.6-2.2-17.1l11.2-19l-21.3-5.5c-6.2-1.6-10.6-7.2-10.6-13.6v-20.6c0-6.4,4.3-12,10.6-13.6l21.3-5.5l-11.2-19
	c-3.3-5.5-2.4-12.6,2.2-17.1l14.6-14.6c4.5-4.5,11.6-5.4,17.1-2.2l19,11.2l5.5-21.3c1.6-6.2,7.2-10.6,13.6-10.6h20.6
	c6.4,0,12,4.3,13.6,10.6l5.5,21.3l19-11.2c5.5-3.3,12.6-2.4,17.1,2.2l14.6,14.6c4.5,4.5,5.4,11.6,2.2,17.1l-11.2,19l21.3,5.5
	c0,0,0,0,0,0c6.2,1.6,10.6,7.2,10.6,13.6v20.6c0,6.4-4.3,12-10.6,13.6l-21.3,5.5l11.2,19c3.3,5.5,2.4,12.6-2.2,17.1l-14.6,14.6
	c-4.5,4.5-11.6,5.4-17.1,2.2l-19-11.2l-5.5,21.3C347.7,424,342.1,428.4,335.7,428.4L335.7,428.4z M299.1,383.8
	c0.6,0,1.3,0.1,1.9,0.4c1.5,0.6,2.5,1.9,2.9,3.4l7.2,27.8c0.5,1.8,2.1,3.1,4,3.1h20.6c1.9,0,3.5-1.3,4-3.1l7.2-27.8
	c0.4-1.5,1.5-2.8,2.9-3.4c1.5-0.6,3.1-0.5,4.5,0.3l24.7,14.6c1.6,0.9,3.6,0.7,5-0.6l14.6-14.6c1.3-1.3,1.6-3.4,0.6-5l-14.6-24.7
	c-0.8-1.4-0.9-3-0.3-4.5s1.8-2.5,3.4-2.9l27.8-7.2c1.8-0.5,3.1-2.1,3.1-4v-20.6c0-1.9-1.3-3.5-3.1-4l-27.8-7.1
	c-1.5-0.4-2.8-1.5-3.4-2.9c-0.6-1.5-0.5-3.1,0.3-4.5l14.6-24.7c0.9-1.6,0.7-3.6-0.6-5l-14.6-14.6c-1.3-1.3-3.4-1.6-5-0.6l-24.7,14.6
	c-1.3,0.8-3,0.9-4.5,0.3c-1.5-0.6-2.5-1.9-2.9-3.4l-7.2-27.8c-0.5-1.8-2.1-3.1-4-3.1h-20.6c-1.9,0-3.5,1.3-4,3.1l-7.2,27.7
	c-0.4,1.5-1.5,2.8-2.9,3.4c-1.5,0.6-3.1,0.5-4.5-0.3l-24.7-14.6c-1.6-0.9-3.7-0.7-5,0.6l-14.6,14.6c-1.3,1.3-1.6,3.4-0.6,5
	l14.6,24.7c0.8,1.4,0.9,3,0.3,4.5s-1.8,2.5-3.4,2.9l-27.8,7.2c-1.8,0.5-3.1,2.1-3.1,4v20.6c0,1.9,1.3,3.5,3.1,4l27.8,7.1
	c1.5,0.4,2.8,1.5,3.4,2.9c0.6,1.5,0.5,3.1-0.3,4.5l-14.6,24.7c-0.9,1.6-0.7,3.7,0.6,5l14.6,14.6c1.3,1.3,3.4,1.6,5,0.6l24.7-14.6
	C297.3,384,298.2,383.8,299.1,383.8L299.1,383.8z"/>
<g>
	<path class="st1" d="M180,193.7c-2.8,0-5,2.2-5,5v21.7h-38.9c-2.8,0-5,2.2-5,5s2.2,5,5,5H175v29h-18c-2.8,0-5,2.2-5,5s2.2,5,5,5h18
		v29h-18c-2.8,0-5,2.2-5,5s2.2,5,5,5h18v29h-18c-2.8,0-5,2.2-5,5s2.2,5,5,5h18v29h-38.9c-2.8,0-5,2.2-5,5s2.2,5,5,5H175v31.9H93.6
		V198.7c0-2.8-2.2-5-5-5s-5,2.2-5,5v224.7c0,2.8,2.2,5,5,5H180c2.8,0,5-2.2,5-5V198.7C185,196,182.8,193.7,180,193.7z"/>
	<path class="st1" d="M423.4,83.6H88.6c-2.8,0-5,2.2-5,5V180c0,2.8,2.2,5,5,5h334.8c2.8,0,5-2.2,5-5V88.6
		C428.4,85.9,426.1,83.6,423.4,83.6L423.4,83.6z M418.4,175H382v-18c0-2.8-2.2-5-5-5c-2.8,0-5,2.2-5,5v18h-29v-18c0-2.8-2.2-5-5-5
		c-2.8,0-5,2.2-5,5v18h-29v-18c0-2.8-2.2-5-5-5c-2.8,0-5,2.2-5,5v18h-29v-38.9c0-2.8-2.2-5-5-5c-2.8,0-5,2.2-5,5V175h-29v-18
		c0-2.8-2.2-5-5-5s-5,2.2-5,5v18H93.6V93.6h324.8L418.4,175L418.4,175z"/>
	<path class="st1" d="M325.4,287.8c-20.7,0-37.6,16.9-37.6,37.6s16.9,37.6,37.6,37.6c20.7,0,37.6-16.9,37.6-37.6
		S346.1,287.8,325.4,287.8z M325.4,353c-15.2,0-27.6-12.4-27.6-27.6s12.4-27.6,27.6-27.6s27.6,12.4,27.6,27.6S340.6,353,325.4,353z"
		/>
</g>
</svg>
