<?xml version="1.0" encoding="utf-8"?>
<!-- Generator: Adobe Illustrator 21.0.0, SVG Export Plug-In . SVG Version: 6.00 Build 0)  -->
<svg version="1.1" id="Layer_1" xmlns="http://www.w3.org/2000/svg" xmlns:xlink="http://www.w3.org/1999/xlink" x="0px" y="0px"
	 viewBox="0 0 512 512" style="enable-background:new 0 0 512 512;" xml:space="preserve">
<style type="text/css">
	.st0{fill:#27E027;}
	.st1{fill:#221B17;}
</style>
<path class="st0" d="M261.4,155.5l0.7-0.1c3.8-0.8,7-2.4,9.4-4.8c3.2-3.1,4.8-7.2,4.8-12.2c0-3.1-0.6-5.9-1.8-8.2
	c-1.2-2.3-3.1-4.3-5.5-6c-2.3-1.6-5.7-3.1-10.5-4.8c-5.2-1.8-7.5-3.3-8.6-4.3c-1.3-1.2-1.9-2.9-1.9-5.3c0-2.5,0.7-4.3,2.2-5.7
	c1.5-1.4,3.8-2.1,6.7-2.1c2.9,0,5,0.8,6.6,2.7c1.3,1.5,2.1,3.5,2.4,6c0.3,2.6,2.5,4.6,5,4.6c1.4,0,2.8-0.6,3.7-1.7
	c0.9-1,1.4-2.4,1.3-3.8c-0.4-4.5-1.8-8.3-4.3-11.2c-2.3-2.8-5.5-4.7-9.3-5.6l-0.6-0.2v-3.5c0-2.6-2.1-4.7-4.7-4.7
	c-2.6,0-4.7,2.1-4.7,4.7v3.4l-0.7,0.1c-3.7,0.8-6.7,2.4-9.1,4.8c-3.1,3.1-4.7,7.2-4.7,12.2c0,4.7,1.4,8.6,4.3,11.6
	c2.7,2.9,7.1,5.3,13.3,7.2c5.4,1.9,7.8,3.5,8.9,4.6c1.3,1.3,2,2.9,2,5.1c0,2.3-0.8,4.1-2.5,5.6c-1.8,1.5-4.2,2.3-7.2,2.3
	c-3.4,0-6.1-0.9-7.9-2.6c-1.5-1.5-2.3-3.3-2.6-5.7c-0.3-2.5-2.5-4.5-5-4.5c-1.4,0-2.8,0.6-3.8,1.7c-1,1.1-1.4,2.5-1.3,3.9
	c0.5,4.5,2.1,8.2,4.9,11.1c2.7,2.8,6.2,4.6,10.6,5.3l0.7,0.1v2.5c0,2.6,2.1,4.7,4.7,4.7s4.7-2.1,4.7-4.7L261.4,155.5L261.4,155.5z"
	/>
<g>
	<path class="st1" d="M440.2,117.5h-99.1c-2.8,0-5,2.2-5,5s2.2,5,5,5h99.1c8.5,0,15.3,6.9,15.3,15.3V355c0,8.5-6.9,15.3-15.3,15.3
		H71.8c-8.5,0-15.3-6.9-15.3-15.3V142.9c0-8.5,6.9-15.3,15.3-15.3h99.1c2.8,0,5-2.2,5-5s-2.2-5-5-5H71.8c-14,0-25.3,11.4-25.3,25.3
		V355c0,14,11.4,25.3,25.3,25.3h368.4c14,0,25.3-11.4,25.3-25.3V142.9C465.5,128.9,454.2,117.5,440.2,117.5z"/>
	<path class="st1" d="M338.7,427.3h-49.2v-31.9c0-2.8-2.2-5-5-5s-5,2.2-5,5v31.9h-46.9v-31.9c0-2.8-2.2-5-5-5s-5,2.2-5,5v31.9h-49.2
		c-9,0-16.3,7.3-16.3,16.3s7.3,16.3,16.3,16.3h165.3c9,0,16.3-7.3,16.3-16.3S347.6,427.3,338.7,427.3z M338.7,449.9H173.3
		c-3.5,0-6.3-2.8-6.3-6.3s2.8-6.3,6.3-6.3h165.3c3.5,0,6.3,2.8,6.3,6.3S342.1,449.9,338.7,449.9z"/>
	<path class="st1" d="M343.9,302.2c-2.8,0-5,2.2-5,5s2.2,5,5,5h16.5c2.8,0,5-2.2,5-5V235c0-2.8-2.2-5-5-5H151.7c-2.8,0-5,2.2-5,5
		v72.2c0,2.8,2.2,5,5,5h93.8c2.8,0,5-2.2,5-5s-2.2-5-5-5h-88.8V240h198.7v62.2H343.9z"/>
	<path class="st1" d="M210.1,175.2l-6.1,21.6c-0.5,1.9,0.1,3.9,1.5,5.1c0.9,0.8,2.1,1.2,3.3,1.2c0.7,0,1.4-0.1,2-0.4l28.5-12.4
		c5.5,1.3,11.1,2,16.7,2c38.7,0,70.1-31.4,70.1-70.1S294.7,52.1,256,52.1s-70.1,31.4-70.1,70.1C185.9,142.7,194.7,161.8,210.1,175.2
		L210.1,175.2z M256,62.1c33.1,0,60.1,27,60.1,60.1c0,33.1-27,60.1-60.1,60.1c-5.3,0-10.7-0.7-15.8-2.1c-1.1-0.3-2.3-0.2-3.3,0.2
		l-20.4,8.9l4.1-14.6c0.6-1.9-0.1-4-1.7-5.3c-14.6-11.5-23-28.7-23-47.2C195.9,89.1,222.9,62.1,256,62.1z"/>
</g>
<path class="st0" d="M330.7,357.5c-2.4,0-4.7-0.9-6.4-2.7l-30.6-30.6L283,340.1c-2,3-5.6,4.5-9.2,3.9c-3.6-0.6-6.4-3.3-7.2-6.8
	l-17.1-71.3c-0.7-3.1,0.2-6.3,2.4-8.6c2.3-2.3,5.5-3.2,8.6-2.4l71.3,17.1c3.5,0.8,6.2,3.7,6.8,7.2s-0.9,7.2-3.9,9.2L318.8,299
	l30.6,30.6h0c3.5,3.5,3.5,9.3,0,12.9l-12.3,12.3C335.4,356.6,333.1,357.5,330.7,357.5L330.7,357.5z M292.9,311.4
	c1.3,0,2.6,0.5,3.5,1.5l34.3,34.3l11-11l-34.3-34.3c-1.1-1.1-1.6-2.5-1.4-4s1-2.8,2.2-3.7l19.2-12.9l-67.9-16.3l16.3,67.9l12.9-19.2
	c0.8-1.2,2.2-2,3.7-2.2C292.5,311.4,292.7,311.4,292.9,311.4L292.9,311.4z M342.4,336.7L342.4,336.7L342.4,336.7z"/>
</svg>
