<?xml version="1.0" encoding="utf-8"?>
<!-- Generator: Adobe Illustrator 21.0.0, SVG Export Plug-In . SVG Version: 6.00 Build 0)  -->
<svg version="1.1" id="Layer_1" xmlns="http://www.w3.org/2000/svg" xmlns:xlink="http://www.w3.org/1999/xlink" x="0px" y="0px"
	 viewBox="0 0 512 512" style="enable-background:new 0 0 512 512;" xml:space="preserve">
<style type="text/css">
	.st0{fill:#221B17;}
	.st1{fill:#DBDBDB;}
	.st2{fill:#27E027;}
</style>
<g>
	<path class="st0" d="M435.3,82H66.9c-14,0-25.3,11.4-25.3,25.3v212.1c0,14,11.4,25.3,25.3,25.3h368.4c14,0,25.3-11.4,25.3-25.3
		V107.4C460.6,93.4,449.2,82,435.3,82z M450.6,319.5c0,8.5-6.9,15.3-15.3,15.3H66.9c-8.5,0-15.3-6.9-15.3-15.3V107.4
		c0-8.5,6.9-15.3,15.3-15.3h368.4c8.5,0,15.3,6.9,15.3,15.3V319.5z"/>
	<path class="st0" d="M333.7,391.8h-49.2v-31.9c0-2.8-2.2-5-5-5s-5,2.2-5,5v31.9h-46.9v-31.9c0-2.8-2.2-5-5-5s-5,2.2-5,5v31.9h-49.2
		c-9,0-16.3,7.3-16.3,16.3s7.3,16.3,16.3,16.3h165.3c9,0,16.3-7.3,16.3-16.3S342.7,391.8,333.7,391.8L333.7,391.8z M333.7,414.3
		H168.4c-3.5,0-6.3-2.8-6.3-6.3s2.8-6.3,6.3-6.3h165.3c3.5,0,6.3,2.8,6.3,6.3S337.2,414.3,333.7,414.3z"/>
</g>
<path class="st1" d="M343.5,245.1H158.6c-2.8,0-5-2.2-5-5v-52c0-2.8,2.2-5,5-5h184.9c2.8,0,5,2.2,5,5v52
	C348.5,242.8,346.3,245.1,343.5,245.1z M163.6,235.1h174.9v-42H163.6V235.1z"/>
<path class="st2" d="M343.5,171.8H158.6c-2.8,0-5-2.2-5-5v-52c0-2.8,2.2-5,5-5h184.9c2.8,0,5,2.2,5,5v52
	C348.5,169.5,346.3,171.8,343.5,171.8z M163.6,161.8h174.9v-42H163.6V161.8z"/>
<path class="st1" d="M343.5,318.4H158.6c-2.8,0-5-2.2-5-5v-52c0-2.8,2.2-5,5-5h184.9c2.8,0,5,2.2,5,5v52
	C348.5,316.2,346.3,318.4,343.5,318.4z M163.6,308.4h174.9v-42H163.6V308.4z"/>
<g>
	<path class="st2" d="M414.4,135.1h-27.3l9.7-9.7c2-2,2-5.1,0-7.1c-2-2-5.1-2-7.1,0l-18.2,18.2c-0.9,0.9-1.5,2.2-1.5,3.5
		s0.5,2.6,1.5,3.5l18.2,18.2c1,1,2.3,1.5,3.5,1.5s2.6-0.5,3.5-1.5c2-2,2-5.1,0-7.1l-9.7-9.7h27.3c2.8,0,5-2.2,5-5
		S417.2,135.1,414.4,135.1L414.4,135.1z"/>
	<path class="st2" d="M130.6,136.6l-18.2-18.2c-2-2-5.1-2-7.1,0c-2,2-2,5.1,0,7.1l9.7,9.7H87.7c-2.8,0-5,2.2-5,5s2.2,5,5,5H115
		l-9.7,9.7c-2,2-2,5.1,0,7.1c1,1,2.3,1.5,3.5,1.5s2.6-0.5,3.5-1.5l18.2-18.2c0.9-0.9,1.5-2.2,1.5-3.5S131.5,137.5,130.6,136.6
		L130.6,136.6z"/>
</g>
</svg>
