<?xml version="1.0" encoding="utf-8"?>
<!-- Generator: Adobe Illustrator 21.0.0, SVG Export Plug-In . SVG Version: 6.00 Build 0)  -->
<svg version="1.1" id="Layer_1" xmlns="http://www.w3.org/2000/svg" xmlns:xlink="http://www.w3.org/1999/xlink" x="0px" y="0px"
	 viewBox="0 0 512 512" style="enable-background:new 0 0 512 512;" xml:space="preserve">
<style type="text/css">
	.st0{fill:#DBDBDB;}
	.st1{fill:#221B17;}
	.st2{fill:#27E027;}
</style>
<path class="st0" d="M181.6,303.1c-0.6,0-1.1-0.1-1.7-0.3L97.2,273H46.1c-2.8,0-5-2.2-5-5s2.2-5,5-5h52.1c0.6,0,1.2,0.1,1.7,0.3
	l83.5,30.1c2.6,0.9,3.9,3.8,3,6.4C185.6,301.8,183.7,303.1,181.6,303.1z"/>
<g>
	<path class="st1" d="M308.7,340.9c-1.8-2.7-4.9-4.3-8.2-4.3c-3.3,0-6.3,1.6-8.2,4.3l-26.2,38.4l-7.7-11.2c-1.8-2.7-4.9-4.3-8.2-4.3
		s-6.3,1.6-8.2,4.3l-28.4,41.7c-1.6,2.3-1,5.4,1.3,6.9c0.9,0.6,1.8,0.9,2.8,0.9c1.6,0,3.2-0.8,4.1-2.2l28.2-41.7L262,391
		c0.9,1.4,2.5,2.2,4.1,2.2s3.2-0.8,4.1-2.2l30.1-44.5l39.1,58.4c1.5,2.3,4.6,2.9,6.9,1.4c2.3-1.5,2.9-4.6,1.4-6.9L308.7,340.9z"/>
	<path class="st1" d="M186.6,229v-32.5c0-3.3-1.6-6.4-4.3-8.3c-2.7-1.9-6.2-2.3-9.3-1.2l-75.8,27.9h-46c-5.6,0-10.1,4.5-10.1,10.1
		v10.4H29.8c-6,0-11,4.9-11,11v19.4c0,6,4.9,11,11,11h11.2v10.4c0,5.6,4.5,10.1,10.1,10.1h46l75.8,27.9c1.1,0.4,2.3,0.6,3.5,0.6
		c2,0,4.1-0.6,5.8-1.8c2.7-1.9,4.3-5,4.3-8.3v-32.5c13.1-1.8,23.2-13.1,23.2-26.7v-0.9C209.9,242.1,199.7,230.8,186.6,229L186.6,229
		z M29.8,266.8c-0.5,0-1-0.4-1-1v-19.4c0-0.5,0.4-1,1-1h11.2v21.3L29.8,266.8z M176.6,315.7l-0.2,0.1l-76.6-28.2
		c-0.6-0.2-1.1-0.3-1.7-0.3l-47-0.1l0.1-62.2h46.9c0.6,0,1.2-0.1,1.7-0.3l76.6-28.2L176.6,315.7z M199.9,256.5
		c0,8.1-5.7,14.8-13.2,16.6v-34c7.6,1.7,13.2,8.5,13.2,16.6V256.5z"/>
	<path class="st1" d="M94.8,308.3c-0.4-2.7-2.9-4.6-5.7-4.2c-2.7,0.4-4.6,2.9-4.2,5.7l3.1,21.6H77.9l-5.5-24.2
		c-0.6-2.7-3.3-4.4-6-3.8c-2.7,0.6-4.4,3.3-3.8,6l6.3,28.1c0.5,2.3,2.5,3.9,4.9,3.9h19.9c1.5,0,2.8-0.6,3.8-1.7s1.4-2.6,1.2-4
		L94.8,308.3z"/>
	<path class="st1" d="M235.6,176.8h80.8c2.8,0,5-2.2,5-5v-53.5c0-2.8-2.2-5-5-5h-80.8c-2.8,0-5,2.2-5,5v53.5
		C230.6,174.6,232.8,176.8,235.6,176.8z M240.6,166.8v-37.5l32.1,28.1c0.9,0.8,2.1,1.2,3.3,1.2s2.3-0.4,3.3-1.2l32.1-28.1v37.5
		L240.6,166.8L240.6,166.8z M248.9,123.2h54.2L276,146.9L248.9,123.2z"/>
	<path class="st1" d="M447.4,252.1l-49-38.7c-1.5-1.2-3.6-1.4-5.3-0.6c-1.7,0.8-2.8,2.6-2.8,4.5v77.3c0,1.9,1.1,3.7,2.8,4.5
		c0.7,0.3,1.4,0.5,2.2,0.5c1.1,0,2.2-0.4,3.1-1.1l49-38.7c1.2-0.9,1.9-2.4,1.9-3.9S448.6,253,447.4,252.1L447.4,252.1z M400.3,284.3
		v-56.7l36,28.4L400.3,284.3z"/>
	<path class="st1" d="M233,342.1c0,8.9,7.3,16.2,16.2,16.2c8.9,0,16.2-7.3,16.2-16.2s-7.3-16.2-16.2-16.2
		C240.3,326,233,333.2,233,342.1z M255.4,342.1c0,3.4-2.8,6.2-6.2,6.2s-6.2-2.8-6.2-6.2s2.8-6.2,6.2-6.2S255.4,338.7,255.4,342.1z"
		/>
</g>
<g>
	<path class="st2" d="M221.9,241.1c-1.2,0-2.4-0.4-3.3-1.2c-1.5-1.3-2-3.3-1.5-5.1l7.3-25.8c-18.1-15.5-28.4-37.8-28.4-61.7
		c0-44.8,36.4-81.2,81.2-81.2s81.2,36.4,81.2,81.2s-36.4,81.2-81.2,81.2c-6.6,0-13.2-0.8-19.7-2.4l-33.6,14.6
		C223.3,240.9,222.6,241.1,221.9,241.1L221.9,241.1z M277.2,76C237.9,76,206,108,206,147.2c0,22,9.9,42.4,27.2,56
		c1.6,1.3,2.3,3.3,1.7,5.3l-5.3,18.8l25.5-11.1c1-0.5,2.2-0.5,3.3-0.2c6.1,1.7,12.4,2.5,18.8,2.5c39.3,0,71.2-31.9,71.2-71.2
		S316.5,76,277.2,76L277.2,76z"/>
	<path class="st2" d="M277.2,446c-44.8,0-81.2-36.4-81.2-81.2c0-23.9,10.3-46.2,28.4-61.7l-7.3-25.8c-0.5-1.9,0.1-3.9,1.5-5.1
		c1.5-1.3,3.5-1.6,5.3-0.8l33.6,14.6c6.4-1.6,13.1-2.4,19.7-2.4c44.8,0,81.2,36.4,81.2,81.2S322,446,277.2,446L277.2,446z
		 M229.6,284.7l5.3,18.8c0.6,1.9-0.1,4-1.7,5.3c-17.3,13.6-27.2,34-27.2,56c0,39.3,31.9,71.2,71.2,71.2s71.2-32,71.2-71.2
		s-32-71.2-71.2-71.2c-6.3,0-12.6,0.8-18.8,2.5c-1.1,0.3-2.3,0.2-3.3-0.2L229.6,284.7z"/>
	<path class="st2" d="M411.9,337.2c-37,0-68.8-24.5-78.4-60l-36-16.7c-1.8-0.8-2.9-2.6-2.9-4.5s1.1-3.7,2.9-4.5l36-16.7
		c9.5-35.4,41.4-60,78.4-60c44.8,0,81.2,36.4,81.2,81.2S456.7,337.2,411.9,337.2L411.9,337.2z M311.5,256l28.4,13.2
		c1.4,0.6,2.4,1.9,2.8,3.4c7.7,32.2,36.1,54.7,69.3,54.7c39.3,0,71.2-32,71.2-71.2s-31.9-71.2-71.2-71.2
		c-33.1,0-61.6,22.5-69.3,54.7c-0.4,1.5-1.4,2.7-2.8,3.4L311.5,256z M337.8,238.3L337.8,238.3L337.8,238.3z"/>
</g>
</svg>
