<svg id="Layer_1" data-name="Layer 1" xmlns="http://www.w3.org/2000/svg" viewBox="0 0 479.02 373.06"><defs><style>.cls-1{fill:#27e027;}.cls-2{fill:#dbdbdb;}.cls-3{fill:#221b17;}</style></defs><title>website</title><path class="cls-1" d="M427.4,380.5H84.6a5,5,0,0,1-5-5V171.11a5,5,0,0,1,5-5h87a5,5,0,0,1,0,10h-82V370.5H422.4V176.11H342.24a5,5,0,0,1,0-10H427.4a5,5,0,0,1,5,5V375.5a5,5,0,0,1-5,5Z" transform="translate(-16.49 -69.47)"/><path class="cls-1" d="M347.82,312.24l.61-.12a16.73,16.73,0,0,0,8.58-4.35,15,15,0,0,0,4.37-11.13,15.82,15.82,0,0,0-1.69-7.48,15.42,15.42,0,0,0-5-5.45,41,41,0,0,0-9.62-4.34c-4.71-1.6-6.89-3-7.88-4a6.08,6.08,0,0,1-1.78-4.79,6.64,6.64,0,0,1,2-5.2c1.39-1.3,3.44-2,6.11-2a7.39,7.39,0,0,1,6,2.42,9.56,9.56,0,0,1,2.18,5.51,4.61,4.61,0,0,0,8,2.65,4.6,4.6,0,0,0,1.18-3.5A18.06,18.06,0,0,0,357,260.32a15.22,15.22,0,0,0-8.45-5.07l-.59-.14v-3.16a4.31,4.31,0,1,0-8.61,0v3.13l-.6.13a16.15,16.15,0,0,0-8.28,4.39,15.21,15.21,0,0,0-4.25,11.1,15,15,0,0,0,3.89,10.63c2.47,2.65,6.45,4.8,12.17,6.6,4.91,1.7,7.1,3.2,8.08,4.16a6.12,6.12,0,0,1,1.79,4.62,6.29,6.29,0,0,1-2.28,5.09,9.83,9.83,0,0,1-6.55,2.09c-3.15,0-5.58-.81-7.23-2.42a8.13,8.13,0,0,1-2.37-5.23,4.63,4.63,0,0,0-8-2.59,4.59,4.59,0,0,0-1.16,3.55A16.64,16.64,0,0,0,329,307.33a17.37,17.37,0,0,0,9.65,4.87l.63.11v2.3a4.29,4.29,0,0,0,8.58,0Z" transform="translate(-16.49 -69.47)"/><path class="cls-2" d="M237.59,321.21a5,5,0,0,1-1.7-.3l-64.8-23.34h-40a5,5,0,1,1,0-10H172a5,5,0,0,1,1.7.3l65.62,23.64a5,5,0,0,1-1.7,9.71Z" transform="translate(-16.49 -69.47)"/><path class="cls-3" d="M345.75,149.21h99.58a5.76,5.76,0,0,1,5.76,5.76V375.5a5,5,0,1,0,10,0V155a15.77,15.77,0,0,0-15.76-15.76H345.75a5,5,0,0,0,0,10Z" transform="translate(-16.49 -69.47)"/><path class="cls-3" d="M55.91,380.5a5,5,0,0,0,5-5V155a5.76,5.76,0,0,1,5.76-5.76h99.58a5,5,0,0,0,0-10H66.67A15.77,15.77,0,0,0,50.91,155V375.5A5,5,0,0,0,55.91,380.5Z" transform="translate(-16.49 -69.47)"/><path class="cls-3" d="M472.94,397.39H39.06a22.57,22.57,0,0,0,0,45.14H472.94a22.57,22.57,0,1,0,0-45.14Zm0,35.14H39.06a12.57,12.57,0,0,1,0-25.14H472.94a12.57,12.57,0,1,1,0,25.14Z" transform="translate(-16.49 -69.47)"/><path class="cls-3" d="M256,219a74.75,74.75,0,1,0-74.75-74.75A74.83,74.83,0,0,0,256,219Zm-64.53-69.75h24.28A131.55,131.55,0,0,0,219,174.38a86.79,86.79,0,0,0-16.2,6.62A64.31,64.31,0,0,1,191.47,149.21Zm11.3-41.79a86.7,86.7,0,0,0,16.2,6.63,131.55,131.55,0,0,0-3.22,25.17H191.47A64.32,64.32,0,0,1,202.77,107.42Zm117.77,31.79H296.25A131.39,131.39,0,0,0,293,114a86.79,86.79,0,0,0,16.2-6.62,64.33,64.33,0,0,1,11.3,31.79ZM309.24,181a86.7,86.7,0,0,0-16.2-6.63,131.39,131.39,0,0,0,3.22-25.17h24.28A64.34,64.34,0,0,1,309.24,181ZM251,169.28a133.5,133.5,0,0,0-22.35,2.63,123.17,123.17,0,0,1-2.92-22.7H251v20.07Zm0,10V208c-8-2.94-15-12.81-19.64-26.48A123.8,123.8,0,0,1,251,179.29ZM261,208V179.29a123.89,123.89,0,0,1,19.57,2.26C276,195.19,269,205,261,208Zm0-38.72V149.21h25.21a123.19,123.19,0,0,1-2.92,22.7A133.51,133.51,0,0,0,261,169.29Zm25.21-30.07H261V119.14a133.38,133.38,0,0,0,22.29-2.63,123.19,123.19,0,0,1,2.92,22.7ZM261,109.14V80.42c8,3,15,12.82,19.57,26.46A123.79,123.79,0,0,1,261,109.14ZM251,80.4v28.74a123.74,123.74,0,0,1-19.64-2.26C236,93.2,243,83.34,251,80.4Zm0,38.75v20.07H225.76a123.19,123.19,0,0,1,2.92-22.7A133.37,133.37,0,0,0,251,119.15Zm-41.81,69.76A78.28,78.28,0,0,1,221.66,184a75.18,75.18,0,0,0,10,20.2A65,65,0,0,1,209.22,188.91Zm71.14,15.28a75.18,75.18,0,0,0,10-20.2,78.51,78.51,0,0,1,12.45,4.92A65,65,0,0,1,280.37,204.19ZM302.78,99.52a78.47,78.47,0,0,1-12.44,4.92,75.12,75.12,0,0,0-10-20.2A65,65,0,0,1,302.78,99.52ZM231.63,84.24a75.24,75.24,0,0,0-10,20.2,78.7,78.7,0,0,1-12.45-4.92A65,65,0,0,1,231.63,84.24Z" transform="translate(-16.49 -69.47)"/><path class="cls-3" d="M230.45,338.52A9,9,0,0,0,242.59,330V305.46a22.3,22.3,0,0,0,18.26-21.89v-.67A22.3,22.3,0,0,0,242.59,261V236.42A9,9,0,0,0,230.45,228l-59.37,21.85h-36a9,9,0,0,0-9,9v7.09h-7.76a9.7,9.7,0,0,0-9.69,9.69v15.24a9.7,9.7,0,0,0,9.69,9.69h7.76v7.09a9,9,0,0,0,9,9h6l6.93,30.66a5,5,0,0,0,4.88,3.9h15.65a5,5,0,0,0,4.95-5.72l-4.19-28.84h1.73Zm20.41-55.62v.67a12.28,12.28,0,0,1-8.26,11.59V271.31A12.29,12.29,0,0,1,250.85,282.9Zm-132.23,7.65V275.92h7.45v14.62Zm17.45-30.74H172a5,5,0,0,0,1.73-.31l58.9-21.68v90.83L173.69,307a4.93,4.93,0,0,0-1.73-.31H136.07Zm26.74,81.42h-5.88l-5.55-24.56h7.86Z" transform="translate(-16.49 -69.47)"/><path class="cls-3" d="M287.76,283.91a55.17,55.17,0,1,0,55.17-55.17,55.23,55.23,0,0,0-55.17,55.17Zm100.34,0a45.17,45.17,0,1,1-45.17-45.17,45.22,45.22,0,0,1,45.17,45.17Z" transform="translate(-16.49 -69.47)"/></svg>